# Blender 4.3.2
# www.blender.org
o bounding_tower_base
v -0.040000 0.030171 -0.000000
v -0.030171 0.040000 -0.000000
v -0.038683 0.035085 -0.000000
v -0.035085 0.038683 -0.000000
v 0.030171 0.040000 -0.000000
v 0.040000 0.030171 -0.000000
v 0.035085 0.038683 -0.000000
v 0.038683 0.035085 -0.000000
v -0.030171 -0.040000 -0.000000
v -0.040000 -0.030171 -0.000000
v -0.035085 -0.038683 -0.000000
v -0.038683 -0.035085 -0.000000
v 0.040000 -0.030171 -0.000000
v 0.030171 -0.040000 -0.000000
v 0.038683 -0.035085 -0.000000
v 0.035085 -0.038683 -0.000000
v -0.030171 0.040000 0.599939
v -0.040000 0.030171 0.599939
v -0.035085 0.038683 0.599939
v -0.038683 0.035085 0.599939
v 0.040000 0.030171 0.599939
v 0.030171 0.040000 0.599939
v 0.038683 0.035085 0.599939
v 0.035085 0.038683 0.599939
v -0.040000 -0.030171 0.599939
v -0.030171 -0.040000 0.599939
v -0.038683 -0.035085 0.599939
v -0.035085 -0.038683 0.599939
v 0.030171 -0.040000 0.599939
v 0.040000 -0.030171 0.599939
v 0.035085 -0.038683 0.599939
v 0.038683 -0.035085 0.599939
v -0.205000 0.205000 0.168537
v -0.205000 0.205000 0.210777
v 0.205000 0.205000 0.168537
v 0.205000 0.205000 0.210777
v -0.205000 -0.205000 0.168537
v -0.205000 -0.205000 0.210777
v 0.205000 -0.205000 0.168537
v 0.205000 -0.205000 0.210777
vn -0.8660 0.5000 -0.0000
vn -0.5000 0.8660 -0.0000
vn -0.8660 -0.5000 -0.0000
vn -0.5000 -0.8660 -0.0000
vn -0.9914 0.1305 -0.0000
vn 0.5000 0.8660 -0.0000
vn 0.1305 0.9914 -0.0000
vn -0.9914 -0.1305 -0.0000
vn 0.9914 0.1305 -0.0000
vn 0.8660 0.5000 -0.0000
vn -0.1305 0.9914 -0.0000
vn 0.9914 -0.1305 -0.0000
vn 0.8660 -0.5000 -0.0000
vn 0.5000 -0.8660 -0.0000
vn -0.1305 -0.9914 -0.0000
vn 0.1305 -0.9914 -0.0000
vn -0.0000 -0.0000 -1.0000
vn -0.0000 -0.0000 1.0000
vn -0.0000 1.0000 -0.0000
vn 1.0000 -0.0000 -0.0000
vn -0.0000 -1.0000 -0.0000
vn -1.0000 -0.0000 -0.0000
vt 0.117343 0.915337
vt 0.117343 0.005127
vt 0.122816 0.005135
vt 0.122816 0.915345
vt 0.010597 0.005127
vt 0.010597 0.915337
vt 0.005124 0.915345
vt 0.005124 0.005135
vt 0.109867 0.915334
vt 0.109867 0.005124
vt 0.367749 0.005127
vt 0.367749 0.915337
vt 0.360273 0.915334
vt 0.360273 0.005124
vt 0.018073 0.915334
vt 0.018073 0.005124
vt 0.146013 0.005124
vt 0.146013 0.915334
vt 0.138537 0.915337
vt 0.138537 0.005127
vt 0.268480 0.915334
vt 0.268480 0.005124
vt 0.237806 0.005124
vt 0.237806 0.915334
vt 0.133064 0.915345
vt 0.133064 0.005135
vt 0.245283 0.005127
vt 0.245283 0.915337
vt 0.250755 0.005135
vt 0.250755 0.915345
vt 0.484743 0.005127
vt 0.484743 0.915337
vt 0.477267 0.915334
vt 0.477267 0.005124
vt 0.385474 0.005124
vt 0.385474 0.915334
vt 0.377998 0.915337
vt 0.377998 0.005127
vt 0.637186 0.521497
vt 0.639189 0.514021
vt 0.644662 0.508548
vt 0.652138 0.506544
vt 0.743932 0.506544
vt 0.751408 0.508548
vt 0.756881 0.514021
vt 0.758884 0.521497
vt 0.758884 0.613290
vt 0.756881 0.620766
vt 0.751408 0.626239
vt 0.743932 0.628242
vt 0.652138 0.628242
vt 0.644662 0.626239
vt 0.639189 0.620766
vt 0.637186 0.613290
vt 0.261004 0.915337
vt 0.261004 0.005127
vt 0.375000 0.000000
vt 0.625000 0.000000
vt 0.625000 0.250000
vt 0.375000 0.250000
vt 0.625000 0.500000
vt 0.375000 0.500000
vt 0.625000 0.750000
vt 0.375000 0.750000
vt 0.625000 1.000000
vt 0.375000 1.000000
vt 0.125000 0.500000
vt 0.125000 0.750000
vt 0.875000 0.500000
vt 0.875000 0.750000
s 1
f 3/1/1 20/2/1 19/3/2 4/4/2
f 27/5/3 12/6/3 11/7/4 28/8/4
f 1/9/5 18/10/5 20/2/1 3/1/1
f 24/11/6 7/12/6 5/13/7 22/14/7
f 10/15/8 25/16/8 18/10/5 1/9/5
f 21/17/9 6/18/9 8/19/10 23/20/10
f 2/21/11 17/22/11 22/14/7 5/13/7
f 6/18/9 21/17/9 30/23/12 13/24/12
f 25/16/8 10/15/8 12/6/3 27/5/3
f 23/20/10 8/19/10 7/25/6 24/26/6
f 32/27/13 15/28/13 13/24/12 30/23/12
f 31/29/14 16/30/14 15/28/13 32/27/13
f 28/31/4 11/32/4 9/33/15 26/34/15
f 29/35/16 14/36/16 16/37/14 31/38/14
f 14/36/16 29/35/16 26/34/15 9/33/15
f 5/39/17 7/40/17 8/41/17 6/42/17 13/43/17 15/44/17 16/45/17 14/46/17 9/47/17 11/48/17 12/49/17 10/50/17 1/51/17 3/52/17 4/53/17 2/54/17
f 4/55/2 19/56/2 17/22/11 2/21/11
f 20/2/18 18/10/18 25/16/18 27/5/18 28/31/18 26/34/18 29/35/18 31/29/18 32/27/18 30/23/18 21/17/18 23/20/18 24/11/18 22/14/18 17/22/18 19/3/18
f 33/57/19 34/58/19 36/59/19 35/60/19
f 35/60/20 36/59/20 40/61/20 39/62/20
f 39/62/21 40/61/21 38/63/21 37/64/21
f 37/64/22 38/63/22 34/65/22 33/66/22
f 35/67/17 39/62/17 37/64/17 33/68/17
f 40/61/18 36/69/18 34/70/18 38/63/18
o bounding_tower_cone
v 0.003993 0.002668 0.672338
v 0.004710 0.000937 0.672338
v 0.002668 0.003993 0.672338
v 0.000937 0.004711 0.672338
v -0.000937 0.004711 0.672338
v -0.002668 0.003993 0.672338
v -0.003993 0.002668 0.672338
v -0.004711 0.000937 0.672338
v -0.004711 -0.000937 0.672338
v -0.003993 -0.002668 0.672338
v -0.002668 -0.003993 0.672338
v -0.000937 -0.004710 0.672338
v 0.000937 -0.004710 0.672338
v 0.002668 -0.003993 0.672338
v 0.003993 -0.002668 0.672338
v 0.004710 -0.000937 0.672338
v 0.003993 0.002668 0.967650
v 0.004710 0.000937 0.967650
v 0.002668 0.003993 0.967650
v 0.000937 0.004711 0.967650
v -0.000937 0.004711 0.967650
v -0.002668 0.003993 0.967650
v -0.003993 0.002668 0.967650
v -0.004711 0.000937 0.967650
v -0.004711 -0.000937 0.967650
v -0.003993 -0.002668 0.967650
v -0.002668 -0.003993 0.967650
v -0.000937 -0.004710 0.967650
v 0.000937 -0.004710 0.967650
v 0.002668 -0.003993 0.967650
v 0.003993 -0.002668 0.967650
v 0.004710 -0.000937 0.967650
v 0.005241 0.003502 0.672254
v 0.006182 0.001230 0.672254
v 0.003502 0.005241 0.672254
v 0.001230 0.006182 0.672254
v -0.001230 0.006182 0.672254
v -0.003502 0.005241 0.672254
v -0.005241 0.003502 0.672254
v -0.006182 0.001230 0.672254
v -0.006182 -0.001230 0.672254
v -0.005241 -0.003502 0.672254
v -0.003502 -0.005241 0.672254
v -0.001230 -0.006182 0.672254
v 0.001230 -0.006182 0.672254
v 0.003502 -0.005241 0.672254
v 0.005241 -0.003502 0.672254
v 0.006182 -0.001230 0.672254
v -0.029630 0.039367 0.611122
v -0.030171 0.040000 0.608650
v -0.030012 0.039815 0.609933
v -0.040000 0.030171 0.608650
v -0.039367 0.029630 0.611122
v -0.039815 0.030012 0.609933
v -0.034497 0.038060 0.611118
v -0.035085 0.038683 0.608650
v -0.034913 0.038501 0.609932
v -0.038060 0.034497 0.611118
v -0.038683 0.035085 0.608650
v -0.038501 0.034913 0.609932
v 0.039367 0.029630 0.611122
v 0.040000 0.030171 0.608650
v 0.039815 0.030012 0.609933
v 0.030171 0.040000 0.608650
v 0.029630 0.039367 0.611122
v 0.030012 0.039815 0.609933
v 0.038683 0.035085 0.608650
v 0.038060 0.034497 0.611118
v 0.038501 0.034913 0.609932
v 0.035085 0.038683 0.608650
v 0.034497 0.038060 0.611118
v 0.034913 0.038501 0.609932
v -0.039367 -0.029630 0.611122
v -0.040000 -0.030171 0.608650
v -0.039815 -0.030012 0.609933
v -0.030171 -0.040000 0.608650
v -0.029630 -0.039367 0.611122
v -0.030012 -0.039815 0.609933
v -0.038683 -0.035085 0.608650
v -0.038060 -0.034497 0.611118
v -0.038501 -0.034913 0.609932
v -0.035085 -0.038683 0.608650
v -0.034497 -0.038060 0.611118
v -0.034913 -0.038501 0.609932
v 0.029630 -0.039367 0.611122
v 0.030171 -0.040000 0.608650
v 0.030012 -0.039815 0.609933
v 0.040000 -0.030171 0.608650
v 0.039367 -0.029630 0.611122
v 0.039815 -0.030012 0.609933
v 0.035085 -0.038683 0.608650
v 0.034497 -0.038060 0.611118
v 0.034913 -0.038501 0.609932
v 0.038683 -0.035085 0.608650
v 0.038060 -0.034497 0.611118
v 0.038501 -0.034913 0.609932
v 0.006182 0.001230 0.670279
v 0.006312 0.001341 0.669770
v 0.006218 0.001279 0.670014
v 0.005368 0.003622 0.669772
v 0.005241 0.003502 0.670279
v 0.005276 0.003543 0.670015
v 0.003622 0.005368 0.669772
v 0.003502 0.005241 0.670279
v 0.003543 0.005276 0.670015
v 0.001341 0.006312 0.669770
v 0.001230 0.006182 0.670279
v 0.001279 0.006218 0.670014
v -0.001341 0.006312 0.669770
v -0.001230 0.006182 0.670279
v -0.001279 0.006218 0.670014
v -0.003622 0.005368 0.669772
v -0.003502 0.005241 0.670279
v -0.003543 0.005276 0.670015
v -0.005368 0.003622 0.669772
v -0.005241 0.003502 0.670279
v -0.005276 0.003543 0.670015
v -0.006312 0.001341 0.669770
v -0.006182 0.001230 0.670279
v -0.006218 0.001279 0.670014
v -0.006312 -0.001341 0.669770
v -0.006182 -0.001230 0.670279
v -0.006218 -0.001279 0.670014
v -0.005368 -0.003622 0.669772
v -0.005241 -0.003502 0.670279
v -0.005276 -0.003543 0.670015
v -0.003622 -0.005368 0.669772
v -0.003502 -0.005241 0.670279
v -0.003543 -0.005276 0.670015
v -0.001341 -0.006312 0.669770
v -0.001230 -0.006182 0.670279
v -0.001279 -0.006218 0.670014
v 0.001341 -0.006312 0.669770
v 0.001230 -0.006182 0.670279
v 0.001279 -0.006218 0.670014
v 0.003622 -0.005368 0.669772
v 0.003502 -0.005241 0.670279
v 0.003543 -0.005276 0.670015
v 0.005368 -0.003622 0.669772
v 0.005241 -0.003502 0.670279
v 0.005276 -0.003543 0.670015
v 0.006312 -0.001341 0.669770
v 0.006182 -0.001230 0.670279
v 0.006218 -0.001279 0.670014
v -0.040000 0.030171 0.600023
v -0.038683 0.035085 0.600023
v -0.035085 0.038683 0.600023
v -0.030171 0.040000 0.600023
v 0.038683 0.035085 0.600023
v 0.040000 0.030171 0.600023
v 0.035085 0.038683 0.600023
v 0.030171 0.040000 0.600023
v 0.035085 -0.038683 0.600023
v 0.030171 -0.040000 0.600023
v 0.038683 -0.035085 0.600023
v 0.040000 -0.030171 0.600023
v -0.038683 -0.035085 0.600023
v -0.040000 -0.030171 0.600023
v -0.035085 -0.038683 0.600023
v -0.030171 -0.040000 0.600023
vn -0.0000 -0.0000 -1.0000
vn -0.0000 -0.0000 1.0000
vn -0.1951 -0.9808 -0.0000
vn 0.1951 -0.9808 -0.0000
vn -0.1951 0.9808 -0.0000
vn -0.5556 0.8315 -0.0000
vn 0.5556 -0.8315 -0.0000
vn -0.8315 0.5556 -0.0000
vn 0.8315 -0.5556 -0.0000
vn -0.9808 0.1951 -0.0000
vn 0.9808 -0.1951 -0.0000
vn -0.9808 -0.1951 -0.0000
vn 0.9808 0.1951 -0.0000
vn 0.8315 0.5556 -0.0000
vn -0.8315 -0.5556 -0.0000
vn 0.5556 0.8315 -0.0000
vn -0.5556 -0.8315 -0.0000
vn 0.1951 0.9808 -0.0000
vn -0.1265 0.8792 0.4593
vn -0.4328 0.7382 0.5175
vn -0.4519 0.7203 0.5262
vn -0.1468 0.8712 0.4684
vn 0.9878 0.1342 0.0789
vn 0.9878 -0.1342 0.0789
vn 0.9914 -0.1305 -0.0000
vn 0.9914 0.1305 -0.0000
vn -0.5008 -0.8606 0.0926
vn -0.8606 -0.5008 0.0926
vn -0.8660 -0.5000 -0.0000
vn -0.5000 -0.8660 -0.0000
vn 0.1342 0.9878 0.0789
vn 0.5008 0.8606 0.0926
vn 0.5000 0.8660 -0.0000
vn 0.1305 0.9914 -0.0000
vn 0.5008 -0.8606 0.0926
vn 0.1342 -0.9878 0.0789
vn 0.1305 -0.9914 -0.0000
vn 0.5000 -0.8660 -0.0000
vn -0.1342 -0.9878 0.0789
vn -0.1305 -0.9914 -0.0000
vn -0.9878 -0.1342 0.0789
vn -0.9914 -0.1305 -0.0000
vn -0.1265 -0.8792 0.4593
vn 0.1265 -0.8792 0.4593
vn 0.1468 -0.8712 0.4684
vn -0.1468 -0.8712 0.4684
vn 0.8606 -0.5008 0.0926
vn 0.8660 -0.5000 -0.0000
vn -0.8792 0.1265 0.4593
vn -0.8792 -0.1265 0.4593
vn -0.8712 -0.1468 0.4684
vn -0.8712 0.1468 0.4684
vn -0.9878 0.1342 0.0789
vn -0.8606 0.5008 0.0926
vn -0.8660 0.5000 -0.0000
vn -0.9914 0.1305 -0.0000
vn 0.8606 0.5008 0.0926
vn 0.8660 0.5000 -0.0000
vn -0.5008 0.8606 0.0926
vn -0.5000 0.8660 -0.0000
vn -0.7382 0.4328 0.5175
vn -0.7203 0.4520 0.5262
vn -0.7382 -0.4328 0.5175
vn -0.7203 -0.4519 0.5262
vn 0.8792 -0.1265 0.4593
vn 0.8792 0.1265 0.4593
vn 0.8712 0.1468 0.4684
vn 0.8712 -0.1468 0.4684
vn 0.7382 0.4328 0.5175
vn 0.4328 0.7382 0.5175
vn 0.4520 0.7203 0.5262
vn 0.7203 0.4519 0.5262
vn -0.4328 -0.7382 0.5175
vn -0.4519 -0.7203 0.5262
vn 0.1265 0.8792 0.4593
vn 0.1468 0.8712 0.4684
vn -0.5501 -0.8291 0.0998
vn -0.1850 -0.9793 0.0816
vn 0.1850 0.9793 0.0816
vn -0.1850 0.9793 0.0816
vn 0.4328 -0.7382 0.5175
vn 0.4520 -0.7203 0.5262
vn 0.7382 -0.4328 0.5175
vn 0.7203 -0.4519 0.5262
vn -0.8291 0.5502 0.0998
vn -0.9793 0.1851 0.0816
vn 0.5501 0.8291 0.0998
vn -0.1342 0.9878 0.0789
vn -0.1305 0.9914 -0.0000
vn 0.1850 -0.9793 0.0816
vn 0.5501 -0.8291 0.0998
vn 0.8291 -0.5502 0.0998
vn -0.9793 -0.1851 0.0816
vn 0.9793 -0.1850 0.0816
vn 0.9793 0.1851 0.0816
vn -0.5501 0.8291 0.0998
vn -0.8291 -0.5502 0.0998
vn 0.8291 0.5502 0.0998
vn -0.8212 0.4774 0.3126
vn -0.9535 0.1302 0.2718
vn -0.4774 0.8212 0.3126
vn -0.1302 0.9535 0.2718
vn 0.9535 0.1302 0.2718
vn 0.8212 0.4774 0.3126
vn 0.4774 0.8212 0.3126
vn 0.1302 0.9535 0.2718
vn 0.1302 -0.9535 0.2718
vn 0.4774 -0.8212 0.3126
vn 0.8212 -0.4774 0.3126
vn 0.9535 -0.1302 0.2718
vn -0.9535 -0.1302 0.2718
vn -0.8212 -0.4774 0.3126
vn -0.4774 -0.8212 0.3126
vn -0.1302 -0.9535 0.2718
vn 0.9402 0.1859 0.2856
vn 0.7863 0.5250 0.3258
vn 0.5250 0.7863 0.3258
vn 0.1859 0.9402 0.2855
vn -0.1859 0.9402 0.2855
vn -0.5249 0.7863 0.3258
vn -0.7863 0.5250 0.3258
vn -0.9402 0.1859 0.2856
vn -0.9402 -0.1859 0.2856
vn -0.7863 -0.5250 0.3258
vn -0.5249 -0.7863 0.3258
vn -0.1859 -0.9402 0.2856
vn 0.1859 -0.9402 0.2856
vn 0.5250 -0.7863 0.3258
vn 0.7863 -0.5250 0.3258
vn 0.9402 -0.1859 0.2856
vt 0.377220 0.559441
vt 0.370946 0.559441
vt 0.365150 0.557040
vt 0.360713 0.552603
vt 0.358313 0.546807
vt 0.358313 0.540533
vt 0.360713 0.534736
vt 0.365150 0.530300
vt 0.370946 0.527899
vt 0.377220 0.527899
vt 0.383017 0.530300
vt 0.387453 0.534736
vt 0.389854 0.540533
vt 0.389854 0.546807
vt 0.387453 0.552603
vt 0.383017 0.557040
vt 0.406672 0.559441
vt 0.400876 0.557040
vt 0.396439 0.552603
vt 0.394038 0.546807
vt 0.394038 0.540533
vt 0.396439 0.534736
vt 0.400876 0.530300
vt 0.406672 0.527899
vt 0.412946 0.527899
vt 0.418743 0.530300
vt 0.423179 0.534736
vt 0.425580 0.540533
vt 0.425580 0.546807
vt 0.423179 0.552603
vt 0.418743 0.557040
vt 0.412946 0.559441
vt 0.799218 0.997908
vt 0.792944 0.997908
vt 0.792944 0.003032
vt 0.799218 0.003032
vt 0.850355 0.997908
vt 0.844559 0.997578
vt 0.844559 0.002702
vt 0.850355 0.003032
vt 0.787147 0.997578
vt 0.787147 0.002702
vt 0.840123 0.996968
vt 0.840123 0.002092
vt 0.782711 0.996968
vt 0.782711 0.002092
vt 0.884477 0.996968
vt 0.878681 0.997298
vt 0.878681 0.002422
vt 0.884477 0.002092
vt 0.835938 0.997578
vt 0.830142 0.997908
vt 0.830142 0.003032
vt 0.835938 0.002702
vt 0.872407 0.997298
vt 0.872407 0.002422
vt 0.823868 0.997908
vt 0.818071 0.997578
vt 0.818071 0.002702
vt 0.823868 0.003032
vt 0.866610 0.996968
vt 0.866610 0.002092
vt 0.813635 0.996968
vt 0.813635 0.002092
vt 0.809451 0.996968
vt 0.805014 0.997578
vt 0.805014 0.002702
vt 0.809451 0.002092
vt 0.862426 0.997578
vt 0.856629 0.997908
vt 0.856629 0.003032
vt 0.862426 0.002702
vt 0.053267 0.493350
vt 0.036970 0.492764
vt 0.140340 0.283209
vt 0.147979 0.283648
vt 0.299641 0.293800
vt 0.299642 0.495826
vt 0.274119 0.495826
vt 0.274119 0.293800
vt 0.531547 0.226752
vt 0.543593 0.228408
vt 0.543593 0.253930
vt 0.531547 0.252275
vt 0.253480 0.501840
vt 0.269934 0.501234
vt 0.269934 0.526757
vt 0.253480 0.527363
vt 0.501234 0.249072
vt 0.501840 0.232618
vt 0.527363 0.232618
vt 0.526757 0.249072
vt 0.501840 0.030591
vt 0.527363 0.030591
vt 0.560046 0.229013
vt 0.560046 0.254536
vt 0.493350 0.032404
vt 0.493350 0.230805
vt 0.283648 0.136093
vt 0.283648 0.127116
vt 0.300248 0.512280
vt 0.274725 0.512280
vt 0.499578 0.261117
vt 0.525102 0.261117
vt 0.760260 0.220523
vt 0.561859 0.220523
vt 0.656571 0.010821
vt 0.665548 0.010821
vt 0.762073 0.229013
vt 0.778527 0.228408
vt 0.778527 0.253930
vt 0.762073 0.254536
vt 0.301903 0.265301
vt 0.300247 0.277346
vt 0.274725 0.277346
vt 0.276380 0.265301
vt 0.022955 0.499579
vt 0.035000 0.501234
vt 0.035000 0.526757
vt 0.022955 0.525102
vt 0.776557 0.219937
vt 0.673187 0.010382
vt 0.545562 0.219937
vt 0.648932 0.010382
vt 0.308132 0.494014
vt 0.308132 0.295613
vt 0.517834 0.390324
vt 0.517834 0.399301
vt 0.308718 0.279316
vt 0.310357 0.267387
vt 0.519077 0.376839
vt 0.518273 0.382685
vt 0.533633 0.218297
vt 0.643086 0.009579
vt 0.267965 0.492764
vt 0.251668 0.493350
vt 0.156956 0.283648
vt 0.164595 0.283209
vt 0.281469 0.119879
vt 0.281902 0.127487
vt 0.275352 0.127487
vt 0.274919 0.119879
vt 0.156584 0.281902
vt 0.148350 0.281902
vt 0.148350 0.275352
vt 0.156584 0.275352
vt 0.492764 0.016107
vt 0.283209 0.119477
vt 0.492764 0.247102
vt 0.283209 0.143732
vt 0.025041 0.491124
vt 0.134494 0.282405
vt 0.491124 0.259031
vt 0.282405 0.149578
vt 0.672785 0.008642
vt 0.665177 0.009075
vt 0.665177 0.002525
vt 0.672785 0.002092
vt 0.308718 0.510311
vt 0.518273 0.406940
vt 0.164192 0.281469
vt 0.164192 0.274919
vt 0.051454 0.501840
vt 0.051454 0.527363
vt 0.281902 0.135722
vt 0.281469 0.143329
vt 0.274919 0.143329
vt 0.275352 0.135722
vt 0.501234 0.014137
vt 0.526757 0.014137
vt 0.280668 0.149152
vt 0.274119 0.149152
vt 0.656942 0.009075
vt 0.656942 0.002525
vt 0.519580 0.398930
vt 0.519580 0.390695
vt 0.526130 0.390695
vt 0.526130 0.398930
vt 0.520013 0.406538
vt 0.526563 0.406538
vt 0.140742 0.281469
vt 0.134920 0.280669
vt 0.134920 0.274119
vt 0.140742 0.274919
vt 0.649335 0.008642
vt 0.649335 0.002092
vt 0.280668 0.114057
vt 0.274119 0.114057
vt 0.520013 0.383088
vt 0.526563 0.383088
vt 0.520813 0.377265
vt 0.527363 0.377265
vt 0.777950 0.224072
vt 0.761542 0.224672
vt 0.035577 0.496899
vt 0.023566 0.495248
vt 0.051985 0.497499
vt 0.303983 0.294331
vt 0.304583 0.277923
vt 0.306234 0.265912
vt 0.269358 0.496899
vt 0.252950 0.497499
vt 0.497499 0.232087
vt 0.496899 0.248495
vt 0.310358 0.522240
vt 0.306234 0.523715
vt 0.304584 0.511703
vt 0.495248 0.260506
vt 0.303983 0.495295
vt 0.560577 0.224672
vt 0.544169 0.224072
vt 0.491124 0.004178
vt 0.495248 0.002703
vt 0.496899 0.014714
vt 0.499578 0.002092
vt 0.497499 0.031122
vt 0.518687 0.390530
vt 0.519122 0.382951
vt 0.519919 0.377147
vt 0.164329 0.282360
vt 0.156750 0.282796
vt 0.148185 0.282796
vt 0.140606 0.282360
vt 0.134802 0.281563
vt 0.672921 0.009533
vt 0.665342 0.009969
vt 0.656777 0.009969
vt 0.649198 0.009533
vt 0.281562 0.113939
vt 0.282360 0.119743
vt 0.282405 0.113631
vt 0.282795 0.127322
vt 0.282795 0.135887
vt 0.282360 0.143466
vt 0.281562 0.149270
vt 0.519122 0.406674
vt 0.518687 0.399095
s 1
f 41/71/23 42/72/23 56/73/23 55/74/23 54/75/23 53/76/23 52/77/23 51/78/23 50/79/23 49/80/23 48/81/23 47/82/23 46/83/23 45/84/23 44/85/23 43/86/23
f 57/87/24 59/88/24 60/89/24 61/90/24 62/91/24 63/92/24 64/93/24 65/94/24 66/95/24 67/96/24 68/97/24 69/98/24 70/99/24 71/100/24 72/101/24 58/102/24
f 52/103/25 53/104/26 69/105/26 68/106/25
f 45/107/27 46/108/28 62/109/28 61/110/27
f 53/104/26 54/111/29 70/112/29 69/105/26
f 46/108/28 47/113/30 63/114/30 62/109/28
f 54/111/29 55/115/31 71/116/31 70/112/29
f 47/117/30 48/118/32 64/119/32 63/120/30
f 55/121/31 56/122/33 72/123/33 71/124/31
f 48/118/32 49/125/34 65/126/34 64/119/32
f 42/127/35 41/128/36 57/129/36 58/130/35
f 56/122/33 42/127/35 58/130/35 72/123/33
f 49/125/34 50/131/37 66/132/37 65/126/34
f 41/128/36 43/133/38 59/134/38 57/129/36
f 50/135/37 51/136/39 67/137/39 66/138/37
f 43/139/38 44/140/40 60/141/40 59/142/38
f 51/136/39 52/103/25 68/106/25 67/137/39
f 44/140/40 45/107/27 61/110/27 60/141/40
f 89/143/41 95/144/42 152/145/43 149/146/44
f 102/147/45 128/148/46 196/149/47 190/150/48
f 122/151/49 119/152/50 197/153/51 199/154/52
f 104/155/53 110/156/54 191/157/55 192/158/56
f 131/159/57 126/160/58 194/161/59 193/162/60
f 126/160/58 116/163/61 200/164/62 194/161/59
f 119/152/50 114/165/63 198/166/64 197/153/51
f 117/167/65 125/168/66 173/169/67 170/170/68
f 128/148/46 134/171/69 195/172/70 196/149/47
f 134/173/69 131/159/57 193/162/60 195/174/70
f 93/175/71 113/176/72 161/177/73 158/178/74
f 92/179/75 99/180/76 186/181/77 185/182/78
f 110/183/54 107/184/79 189/185/80 191/186/55
f 107/184/79 102/147/45 190/150/48 189/185/80
f 99/187/76 96/188/81 187/189/82 186/190/77
f 98/191/83 93/175/71 158/178/74 155/192/84
f 113/176/72 120/193/85 164/194/86 161/177/73
f 129/195/87 101/196/88 138/197/89 182/198/90
f 108/199/91 111/200/92 143/201/93 140/202/94
f 120/193/85 123/203/95 167/204/96 164/194/86
f 111/205/92 105/206/97 146/207/98 143/208/93
f 168/209/99 171/210/100 84/211/25 83/212/39
f 147/213/101 150/214/102 77/215/27 76/216/40
f 123/217/95 117/167/65 170/170/68 167/218/96
f 105/206/97 89/143/41 149/146/44 146/207/98
f 125/168/66 132/219/103 176/220/104 173/169/67
f 95/144/42 98/221/83 155/222/84 152/145/43
f 132/219/103 135/223/105 179/224/106 176/220/104
f 156/225/107 159/226/108 80/227/32 79/228/30
f 135/229/105 129/195/87 182/198/90 179/230/106
f 114/165/63 92/179/75 185/182/78 198/166/64
f 144/231/109 147/213/101 76/216/40 75/232/38
f 96/188/81 90/233/110 188/234/111 187/189/82
f 174/235/112 177/236/113 86/237/29 85/238/26
f 116/163/61 122/239/49 199/240/52 200/164/62
f 177/236/113 180/241/114 87/242/31 86/237/29
f 159/226/108 162/243/115 81/244/34 80/227/32
f 183/245/116 137/246/117 74/247/35 88/248/33
f 180/249/114 183/245/116 88/248/33 87/250/31
f 153/251/118 156/252/107 79/253/30 78/254/28
f 162/243/115 165/255/119 82/256/37 81/244/34
f 150/214/102 153/251/118 78/254/28 77/215/27
f 165/257/119 168/209/99 83/212/39 82/258/37
f 137/246/117 141/259/120 73/260/36 74/247/35
f 171/210/100 174/235/112 85/238/26 84/211/25
f 141/259/120 144/261/109 75/262/38 73/260/36
f 73/260/24 75/262/24 76/216/24 77/215/24 78/254/24 79/253/24 80/227/24 81/244/24 82/256/24 83/212/24 84/211/24 85/238/24 86/237/24 87/242/24 88/248/24 74/247/24
f 93/175/71 98/191/83 100/263/121 94/264/122
f 94/264/122 100/263/121 99/180/76 92/179/75
f 98/221/83 95/144/42 97/265/123 100/266/121
f 100/266/121 97/265/123 96/188/81 99/187/76
f 95/144/42 89/143/41 91/267/124 97/265/123
f 97/265/123 91/267/124 90/233/110 96/188/81
f 108/199/91 101/196/88 103/268/125 109/269/126
f 109/269/126 103/268/125 102/147/45 107/184/79
f 111/200/92 108/199/91 109/269/126 112/270/127
f 112/270/127 109/269/126 107/184/79 110/183/54
f 105/206/97 111/205/92 112/271/127 106/272/128
f 106/272/128 112/271/127 110/156/54 104/155/53
f 132/219/103 125/168/66 127/273/129 133/274/130
f 133/274/130 127/273/129 126/160/58 131/159/57
f 135/229/105 132/275/103 133/276/130 136/277/131
f 136/278/131 133/274/130 131/159/57 134/173/69
f 129/195/87 135/229/105 136/277/131 130/279/132
f 130/279/132 136/277/131 134/171/69 128/148/46
f 120/193/85 113/176/72 115/280/133 121/281/134
f 121/281/134 115/280/133 114/165/63 119/152/50
f 123/217/95 120/282/85 121/283/134 124/284/135
f 124/284/135 121/283/134 119/285/50 122/239/49
f 117/167/65 123/217/95 124/284/135 118/286/136
f 118/286/136 124/284/135 122/239/49 116/163/61
f 89/143/41 105/206/97 106/272/128 91/267/124
f 91/267/124 106/272/128 104/155/53 90/233/110
f 113/176/72 93/175/71 94/264/122 115/280/133
f 115/280/133 94/264/122 92/179/75 114/165/63
f 116/163/61 126/160/58 127/273/129 118/286/136
f 118/286/136 127/273/129 125/168/66 117/167/65
f 128/148/46 102/147/45 103/268/125 130/279/132
f 130/279/132 103/268/125 101/196/88 129/195/87
f 90/233/110 104/155/53 192/158/56 188/234/111
f 141/259/120 137/246/117 139/287/137 142/288/138
f 142/288/138 139/287/137 138/197/89 140/202/94
f 144/261/109 141/259/120 142/288/138 145/289/139
f 145/289/139 142/288/138 140/202/94 143/201/93
f 147/213/101 144/231/109 145/290/139 148/291/140
f 148/291/140 145/290/139 143/208/93 146/207/98
f 150/214/102 147/213/101 148/291/140 151/292/141
f 151/292/141 148/291/140 146/207/98 149/146/44
f 153/251/118 150/214/102 151/292/141 154/293/142
f 154/293/142 151/292/141 149/146/44 152/145/43
f 156/252/107 153/251/118 154/293/142 157/294/143
f 157/294/143 154/293/142 152/145/43 155/222/84
f 159/226/108 156/225/107 157/295/143 160/296/144
f 160/296/144 157/295/143 155/192/84 158/178/74
f 162/243/115 159/226/108 160/296/144 163/297/145
f 163/297/145 160/296/144 158/178/74 161/177/73
f 165/255/119 162/243/115 163/297/145 166/298/146
f 166/298/146 163/297/145 161/177/73 164/194/86
f 168/209/99 165/257/119 166/299/146 169/300/147
f 169/300/147 166/299/146 164/301/86 167/218/96
f 171/210/100 168/209/99 169/300/147 172/302/148
f 172/302/148 169/300/147 167/218/96 170/170/68
f 174/235/112 171/210/100 172/302/148 175/303/149
f 175/303/149 172/302/148 170/170/68 173/169/67
f 177/236/113 174/235/112 175/303/149 178/304/150
f 178/304/150 175/303/149 173/169/67 176/220/104
f 180/241/114 177/236/113 178/304/150 181/305/151
f 181/305/151 178/304/150 176/220/104 179/224/106
f 183/245/116 180/249/114 181/306/151 184/307/152
f 184/307/152 181/306/151 179/230/106 182/198/90
f 137/246/117 183/245/116 184/307/152 139/287/137
f 139/287/137 184/307/152 182/198/90 138/197/89
f 101/196/88 108/199/91 140/202/94 138/197/89
f 185/182/23 186/190/23 187/189/23 188/234/23 192/158/23 191/186/23 189/185/23 190/150/23 196/149/23 195/174/23 193/162/23 194/161/23 200/164/23 199/154/23 197/153/23 198/166/23
