# Blender 4.0.2
# www.blender.org
mtllib box_module.mtl
o module_box.001
v -0.129994 0.000000 0.129994
v -0.129994 -0.000000 -0.129994
v 0.129994 0.000000 0.129994
v 0.129994 -0.000000 -0.129994
v -0.129994 0.174471 -0.129994
v 0.129994 0.174471 -0.129994
v -0.017711 0.186371 0.079227
v 0.017711 0.186371 0.079227
v -0.017711 0.186371 -0.079227
v 0.017711 0.186371 -0.079227
v -0.079227 0.186371 -0.017711
v -0.079227 0.186371 0.017711
v 0.079227 0.186371 0.017711
v 0.079227 0.186371 -0.017711
v -0.017711 0.186371 -0.017711
v 0.017711 0.186371 -0.017711
v 0.017711 0.186371 0.017711
v -0.017711 0.186371 0.017711
v -0.079227 0.172535 0.017711
v -0.079227 0.172535 -0.017711
v 0.079227 0.172535 -0.017711
v 0.079227 0.172535 0.017711
v 0.017711 0.172535 -0.079227
v -0.017711 0.172535 -0.079227
v 0.017711 0.172535 0.079227
v -0.017711 0.172535 0.079227
v 0.017711 0.172535 0.017711
v 0.017711 0.172535 -0.017711
v -0.017711 0.172535 -0.017711
v -0.017711 0.172535 0.017711
v -0.129994 0.174471 0.129994
v 0.129994 0.174471 0.129994
v -0.129994 0.009685 -0.120309
v -0.129994 0.009685 0.120309
v -0.129994 0.164786 0.120309
v -0.129994 0.164786 -0.120309
v 0.129994 0.009685 0.120309
v 0.129994 0.009685 -0.120309
v 0.129994 0.164786 -0.120309
v 0.129994 0.164786 0.120309
v -0.120309 0.000000 0.120309
v -0.120309 -0.000000 -0.120309
v 0.120309 -0.000000 -0.120309
v 0.120309 0.000000 0.120309
v 0.120309 0.009685 -0.129994
v -0.120309 0.009685 -0.129994
v -0.120309 0.164786 -0.129994
v 0.120309 0.164786 -0.129994
v -0.120309 0.009685 0.129994
v 0.120309 0.009685 0.129994
v 0.120309 0.164786 0.129994
v -0.120309 0.164786 0.129994
v -0.120309 0.174471 -0.120309
v -0.120309 0.174471 0.120309
v 0.120309 0.174471 0.120309
v 0.120309 0.174471 -0.120309
v 0.120302 0.009685 0.120309
v 0.120302 0.009685 -0.120309
v 0.120302 0.164786 -0.120309
v -0.120309 0.009692 -0.120309
v -0.120309 0.009685 0.120302
v 0.120309 0.164786 0.120302
v -0.120309 0.164779 0.120309
v -0.120309 0.164779 -0.120309
v 0.118073 0.174158 -0.124921
v -0.124921 0.174158 0.118073
v -0.124921 0.164473 0.118073
v 0.118073 0.164473 -0.124921
v 0.124921 0.174158 -0.118073
v -0.118073 0.174158 0.124921
v -0.118073 0.164466 0.124921
v 0.124921 0.164466 -0.118073
v 0.124921 0.174158 0.118073
v -0.118073 0.174158 -0.124921
v -0.118073 0.164473 -0.124921
v 0.124921 0.164473 0.118073
v 0.118073 0.174158 0.124921
v -0.124921 0.174158 -0.118073
v -0.124921 0.164466 -0.118073
v 0.118073 0.164466 0.124921
vn -0.0000 0.0001 -1.0000
vn -0.0000 -1.0000 -0.0001
vn -1.0000 -0.0000 -0.0002
vn -1.0000 -0.0000 -0.0000
vn -0.0000 1.0000 -0.0000
vn -0.0000 -0.0000 1.0000
vn 1.0000 -0.0000 -0.0000
vn -0.0000 -1.0000 -0.0000
vn -0.0000 -0.0000 -1.0000
vn -0.0000 -1.0000 -0.0002
vn -1.0000 0.0001 -0.0000
vn -0.0001 1.0000 -0.0000
vn -0.0002 -0.0000 -1.0000
vn -0.0000 1.0000 -0.0001
vn -0.0001 -0.0000 -1.0000
vn -0.0000 0.0002 -1.0000
vn -1.0000 -0.0000 0.0002
vn -0.7071 -0.0000 -0.7071
vn 0.7071 -0.0000 0.7071
vn 0.7071 -0.0000 -0.7071
vn -0.7071 -0.0000 0.7071
vt 0.625000 0.966195
vt 0.625000 0.746554
vt 0.611123 0.259313
vt 0.611123 0.490687
vt 0.388877 0.759313
vt 0.611123 0.759313
vt 0.365687 0.509313
vt 0.365687 0.740687
vt 0.732969 0.642031
vt 0.732969 0.607969
vt 0.767031 0.607969
vt 0.767031 0.642031
vt 0.625000 0.503446
vt 0.625000 0.283805
vt 0.388877 0.259313
vt 0.826184 0.607969
vt 0.826184 0.642031
vt 0.673816 0.642031
vt 0.673816 0.607969
vt 0.732969 0.548816
vt 0.767031 0.548816
vt 0.732969 0.701184
vt 0.767031 0.701184
vt 0.375000 0.250000
vt 0.375000 0.000000
vt 0.388877 0.009313
vt 0.388877 0.240687
vt 0.625000 0.000000
vt 0.611123 0.009313
vt 0.625000 0.250000
vt 0.611123 0.240687
vt 0.375000 0.750000
vt 0.375000 0.500000
vt 0.388877 0.509313
vt 0.388877 0.740687
vt 0.625000 0.500000
vt 0.611123 0.509313
vt 0.625000 0.750000
vt 0.611123 0.740687
vt 0.125000 0.750000
vt 0.125000 0.500000
vt 0.134313 0.509313
vt 0.134313 0.740687
vt 0.388877 0.490687
vt 0.375000 1.000000
vt 0.388877 0.990687
vt 0.625000 1.000000
vt 0.611123 0.990687
s 0
f 54/1/1 55/2/1 62/2/1 63/1/1
f 47/3/2 48/4/2 59/4/2 64/3/2
f 50/5/3 51/6/3 62/6/3 57/5/3
f 43/7/4 44/8/4 57/8/4 58/7/4
f 17/9/5 16/10/5 15/11/5 18/12/5
f 56/13/6 53/14/6 64/14/6 59/13/6
f 46/15/7 47/3/7 64/3/7 60/15/7
f 20/16/4 19/17/4 12/17/4 11/16/4
f 22/18/7 21/19/7 14/19/7 13/18/7
f 28/10/7 23/20/7 10/20/7 16/10/7
f 24/21/4 29/11/4 15/11/4 9/21/4
f 30/12/8 27/9/8 25/22/8 26/23/8
f 21/19/9 28/10/9 16/10/9 14/19/9
f 17/9/5 13/18/5 14/19/5 16/10/5
f 12/17/5 18/12/5 15/11/5 11/16/5
f 9/21/5 15/11/5 16/10/5 10/20/5
f 18/12/5 7/23/5 8/22/5 17/9/5
f 26/23/6 25/22/6 8/22/6 7/23/6
f 30/12/4 26/23/4 7/23/4 18/12/4
f 19/17/6 30/12/6 18/12/6 12/17/6
f 23/20/9 24/21/9 9/21/9 10/20/9
f 27/9/6 22/18/6 13/18/6 17/9/6
f 25/22/7 27/9/7 17/9/7 8/22/7
f 29/11/9 20/16/9 11/16/9 15/11/9
f 2/24/4 1/25/4 34/26/4 33/27/4
f 1/25/4 31/28/4 35/29/4 34/26/4
f 31/28/4 5/30/4 36/31/4 35/29/4
f 5/30/4 2/24/4 33/27/4 36/31/4
f 3/32/7 4/33/7 38/34/7 37/35/7
f 4/33/7 6/36/7 39/37/7 38/34/7
f 6/36/7 32/38/7 40/39/7 39/37/7
f 32/38/7 3/32/7 37/35/7 40/39/7
f 1/40/8 2/41/8 42/42/8 41/43/8
f 2/41/8 4/33/8 43/7/8 42/42/8
f 4/33/8 3/32/8 44/8/8 43/7/8
f 3/32/8 1/40/8 41/43/8 44/8/8
f 4/33/9 2/24/9 46/15/9 45/44/9
f 2/24/9 5/30/9 47/3/9 46/15/9
f 5/30/9 6/36/9 48/4/9 47/3/9
f 6/36/9 4/33/9 45/44/9 48/4/9
f 1/45/6 3/32/6 50/5/6 49/46/6
f 3/32/6 32/38/6 51/6/6 50/5/6
f 32/38/6 31/47/6 52/48/6 51/6/6
f 31/47/6 1/45/6 49/46/6 52/48/6
f 5/30/5 31/47/5 54/1/5 53/14/5
f 31/47/5 32/38/5 55/2/5 54/1/5
f 32/38/5 6/36/5 56/13/5 55/2/5
f 6/36/5 5/30/5 53/14/5 56/13/5
f 51/6/10 52/48/10 63/48/10 62/6/10
f 55/2/11 56/13/11 59/13/11 62/2/11
f 33/27/12 34/26/12 61/26/12 60/27/12
f 37/35/5 38/34/5 58/34/5 57/35/5
f 36/31/6 33/27/6 60/27/6 64/31/6
f 41/43/7 42/42/7 60/42/7 61/43/7
f 40/39/13 37/35/13 57/35/13 62/39/13
f 45/44/14 46/15/14 60/15/14 58/44/14
f 34/26/15 35/29/15 63/29/15 61/26/15
f 44/8/16 41/43/16 61/43/16 57/8/16
f 49/46/5 50/5/5 57/5/5 61/46/5
f 38/34/6 39/37/6 59/37/6 58/34/6
f 48/4/17 45/44/17 58/44/17 59/4/17
f 53/14/7 54/1/7 63/1/7 64/14/7
f 35/29/8 36/31/8 64/31/8 63/29/8
f 42/42/6 43/7/6 58/7/6 60/42/6
f 52/48/7 49/46/7 61/46/7 63/48/7
f 39/37/8 40/39/8 62/39/8 59/37/8
f 28/10/8 21/19/8 22/18/8 27/9/8
f 29/11/8 24/21/8 23/20/8 28/10/8
f 27/9/8 30/12/8 29/11/8 28/10/8
f 30/12/8 19/17/8 20/16/8 29/11/8
f 66/28/18 65/30/18 68/31/18 67/29/18
f 65/30/5 66/47/5 70/1/5 69/14/5
f 69/14/19 70/1/19 71/1/19 72/14/19
f 67/29/8 68/31/8 72/31/8 71/29/8
f 74/28/20 73/30/20 76/31/20 75/29/20
f 73/30/5 74/47/5 78/1/5 77/14/5
f 77/14/21 78/1/21 79/1/21 80/14/21
f 75/29/8 76/31/8 80/31/8 79/29/8
