# Blender 4.3.2
# www.blender.org
o Camera
v 0.112425 0.025759 0.007307
v 0.112425 -0.025759 0.007307
v 0.113375 -0.025759 0.002531
v 0.113375 0.025759 0.002531
v 0.116081 -0.025759 -0.001518
v 0.116081 0.025759 -0.001518
v 0.120130 -0.025759 -0.004224
v 0.120130 0.025759 -0.004224
v 0.124906 -0.025759 -0.005174
v 0.124906 0.025759 -0.005174
v 0.129683 -0.025759 -0.004224
v 0.129683 0.025759 -0.004224
v 0.133732 -0.025759 -0.001518
v 0.133732 0.025759 -0.001518
v 0.136438 -0.025759 0.002531
v 0.136438 0.025759 0.002531
v 0.137388 -0.025759 0.007307
v 0.137388 0.025759 0.007307
v 0.136438 -0.025759 0.012084
v 0.136438 0.025759 0.012084
v 0.133732 -0.025759 0.016133
v 0.133732 0.025759 0.016133
v 0.129683 -0.025759 0.018838
v 0.129683 0.025759 0.018838
v 0.124906 -0.025759 0.019788
v 0.124906 0.025759 0.019788
v 0.120130 -0.025759 0.018838
v 0.120130 0.025759 0.018838
v 0.116081 -0.025759 0.016133
v 0.116081 0.025759 0.016133
v 0.113375 -0.025759 0.012084
v 0.113375 0.025759 0.012084
v 0.112425 0.024826 0.007307
v 0.112425 -0.024826 0.007307
v 0.113375 -0.024826 0.002531
v 0.113375 0.024826 0.002531
v 0.116081 -0.024826 -0.001518
v 0.116081 0.024826 -0.001518
v 0.120130 -0.024826 -0.004224
v 0.120130 0.024826 -0.004224
v 0.124906 -0.024826 -0.005174
v 0.124906 0.024826 -0.005174
v 0.129683 -0.024826 -0.004224
v 0.129683 0.024826 -0.004224
v 0.133732 -0.024826 -0.001518
v 0.133732 0.024826 -0.001518
v 0.136438 -0.024826 0.002531
v 0.136438 0.024826 0.002531
v 0.137388 -0.024826 0.007307
v 0.137388 0.024826 0.007307
v 0.136438 -0.024826 0.012084
v 0.136438 0.024826 0.012084
v 0.133732 -0.024826 0.016133
v 0.133732 0.024826 0.016133
v 0.129683 -0.024826 0.018838
v 0.129683 0.024826 0.018838
v 0.124906 -0.024826 0.019788
v 0.124906 0.024826 0.019788
v 0.120130 -0.024826 0.018838
v 0.120130 0.024826 0.018838
v 0.116081 -0.024826 0.016133
v 0.116081 0.024826 0.016133
v 0.113375 -0.024826 0.012084
v 0.113375 0.024826 0.012084
v 0.113276 -0.024826 0.007307
v 0.113276 -0.025759 0.007307
v 0.114162 0.024826 0.002857
v 0.114162 0.025759 0.002857
v 0.116683 0.024826 -0.000917
v 0.116683 0.025759 -0.000917
v 0.120456 0.024826 -0.003438
v 0.120456 0.025759 -0.003438
v 0.124906 0.024826 -0.004323
v 0.124906 0.025759 -0.004323
v 0.129357 0.024826 -0.003438
v 0.129357 0.025759 -0.003438
v 0.133130 0.024826 -0.000917
v 0.133130 0.025759 -0.000917
v 0.135651 0.024826 0.002857
v 0.135651 0.025759 0.002857
v 0.136537 0.024826 0.007307
v 0.136537 0.025759 0.007307
v 0.135651 0.024826 0.011758
v 0.135651 0.025759 0.011758
v 0.133130 0.024826 0.015531
v 0.133130 0.025759 0.015531
v 0.129357 0.024826 0.018052
v 0.129357 0.025759 0.018052
v 0.124906 0.024826 0.018937
v 0.124906 0.025759 0.018937
v 0.120456 0.024826 0.018052
v 0.120456 0.025759 0.018052
v 0.116683 0.024826 0.015531
v 0.116683 0.025759 0.015531
v 0.114162 0.024826 0.011758
v 0.114162 0.025759 0.011758
v 0.113276 0.025759 0.007307
v 0.114162 -0.025759 0.011758
v 0.116683 -0.025759 0.015531
v 0.120456 -0.025759 0.018052
v 0.124906 -0.025759 0.018937
v 0.129357 -0.025759 0.018052
v 0.133130 -0.025759 0.015531
v 0.135651 -0.025759 0.011758
v 0.136537 -0.025759 0.007307
v 0.135651 -0.025759 0.002857
v 0.133130 -0.025759 -0.000917
v 0.129357 -0.025759 -0.003438
v 0.124906 -0.025759 -0.004323
v 0.120456 -0.025759 -0.003438
v 0.116683 -0.025759 -0.000917
v 0.114162 -0.025759 0.002857
v 0.113276 0.024826 0.007307
v 0.114162 -0.024826 0.002857
v 0.116683 -0.024826 -0.000917
v 0.120456 -0.024826 -0.003438
v 0.124906 -0.024826 -0.004323
v 0.129357 -0.024826 -0.003438
v 0.133130 -0.024826 -0.000917
v 0.135651 -0.024826 0.002857
v 0.136537 -0.024826 0.007307
v 0.135651 -0.024826 0.011758
v 0.133130 -0.024826 0.015531
v 0.129357 -0.024826 0.018052
v 0.124906 -0.024826 0.018937
v 0.120456 -0.024826 0.018052
v 0.116683 -0.024826 0.015531
v 0.114162 -0.024826 0.011758
v 0.114487 0.030763 0.007307
v 0.112425 0.028741 0.007307
v 0.114487 -0.030763 0.007307
v 0.112425 -0.028741 0.007307
v 0.115280 0.030763 0.003320
v 0.113375 0.028741 0.002531
v 0.115280 -0.030763 0.003320
v 0.113375 -0.028741 0.002531
v 0.117539 0.030763 -0.000060
v 0.116081 0.028741 -0.001518
v 0.117539 -0.030763 -0.000060
v 0.116081 -0.028741 -0.001518
v 0.120919 0.030763 -0.002319
v 0.120130 0.028741 -0.004224
v 0.120919 -0.030763 -0.002319
v 0.120130 -0.028741 -0.004224
v 0.124906 0.030763 -0.003112
v 0.124906 0.028741 -0.005174
v 0.124906 -0.030763 -0.003112
v 0.124906 -0.028741 -0.005174
v 0.128894 0.030763 -0.002319
v 0.129683 0.028741 -0.004224
v 0.128894 -0.030763 -0.002319
v 0.129683 -0.028741 -0.004224
v 0.132274 0.030763 -0.000060
v 0.133732 0.028741 -0.001518
v 0.132274 -0.030763 -0.000060
v 0.133732 -0.028741 -0.001518
v 0.134533 0.030763 0.003320
v 0.136438 0.028741 0.002531
v 0.134533 -0.030763 0.003320
v 0.136438 -0.028741 0.002531
v 0.135326 0.030763 0.007307
v 0.137388 0.028741 0.007307
v 0.135326 -0.030763 0.007307
v 0.137388 -0.028741 0.007307
v 0.134533 0.030763 0.011294
v 0.136438 0.028741 0.012084
v 0.134533 -0.030763 0.011294
v 0.136438 -0.028741 0.012084
v 0.132274 0.030763 0.014675
v 0.133732 0.028741 0.016133
v 0.132274 -0.030763 0.014675
v 0.133732 -0.028741 0.016133
v 0.128894 0.030763 0.016933
v 0.129683 0.028741 0.018838
v 0.128894 -0.030763 0.016933
v 0.129683 -0.028741 0.018838
v 0.124906 0.030763 0.017726
v 0.124906 0.028741 0.019788
v 0.124906 -0.030763 0.017726
v 0.124906 -0.028741 0.019788
v 0.120919 0.030763 0.016933
v 0.120130 0.028741 0.018838
v 0.120919 -0.030763 0.016933
v 0.120130 -0.028741 0.018838
v 0.117539 0.030763 0.014675
v 0.116081 0.028741 0.016133
v 0.117539 -0.030763 0.014675
v 0.116081 -0.028741 0.016133
v 0.115280 0.030763 0.011294
v 0.113375 0.028741 0.012084
v 0.115280 -0.030763 0.011294
v 0.113375 -0.028741 0.012084
vn -0.9239 -0.0000 0.3827
vn -1.0000 -0.0000 -0.0000
vn -0.7071 -0.0000 -0.7071
vn -0.3827 -0.0000 -0.9239
vn -0.0000 -0.0000 -1.0000
vn 0.3827 -0.0000 -0.9239
vn 0.7071 -0.0000 -0.7071
vn 0.9239 -0.0000 -0.3827
vn 1.0000 -0.0000 -0.0000
vn 0.9239 -0.0000 0.3827
vn 0.7071 -0.0000 0.7071
vn 0.3827 -0.0000 0.9239
vn -0.0000 -0.0000 1.0000
vn -0.3827 -0.0000 0.9239
vn -0.7071 -0.0000 0.7071
vn -0.9239 -0.0000 -0.3827
vn -0.0000 -1.0000 -0.0000
vn -0.0000 1.0000 -0.0000
vn -0.7002 0.7139 -0.0000
vn -0.6469 0.7139 -0.2680
vn -0.6469 -0.7139 -0.2680
vn -0.7002 -0.7139 -0.0000
vn -0.4951 0.7139 -0.4951
vn -0.4951 -0.7139 -0.4951
vn -0.2680 0.7139 -0.6469
vn -0.2680 -0.7139 -0.6469
vn -0.0000 0.7139 -0.7002
vn -0.0000 -0.7139 -0.7002
vn 0.2680 0.7139 -0.6469
vn 0.2680 -0.7139 -0.6469
vn 0.4951 0.7139 -0.4951
vn 0.4951 -0.7139 -0.4951
vn 0.6469 0.7139 -0.2680
vn 0.6469 -0.7139 -0.2680
vn 0.7002 0.7139 -0.0000
vn 0.7002 -0.7139 -0.0000
vn 0.6469 0.7139 0.2680
vn 0.6469 -0.7139 0.2680
vn 0.4951 0.7139 0.4951
vn 0.4951 -0.7139 0.4951
vn 0.2680 0.7139 0.6469
vn 0.2680 -0.7139 0.6469
vn -0.0000 0.7139 0.7002
vn -0.0000 -0.7139 0.7002
vn -0.2680 0.7139 0.6469
vn -0.2680 -0.7139 0.6469
vn -0.4951 0.7139 0.4951
vn -0.4951 -0.7139 0.4951
vn -0.6469 0.7139 0.2680
vn -0.6469 -0.7139 0.2680
vt 0.062500 0.833333
vt 0.000000 0.833333
vt 0.000000 0.932648
vt 0.062500 0.932648
vt 0.875000 0.567352
vt 0.812500 0.567352
vt 0.812500 0.666667
vt 0.875000 0.666667
vt 0.750000 0.567352
vt 0.750000 0.666667
vt 0.687500 0.567352
vt 0.687500 0.666667
vt 0.625000 0.567352
vt 0.625000 0.666667
vt 0.562500 0.567352
vt 0.562500 0.666667
vt 0.500000 0.567352
vt 0.500000 0.666667
vt 0.437500 0.567352
vt 0.437500 0.666667
vt 0.375000 0.567352
vt 0.375000 0.666667
vt 0.312500 0.567352
vt 0.312500 0.666667
vt 0.250000 0.567352
vt 0.250000 0.666667
vt 0.250000 0.567352
vt 0.187500 0.567352
vt 0.187500 0.666667
vt 0.125000 0.567352
vt 0.125000 0.666667
vt 0.062500 0.567352
vt 0.062500 0.666667
vt 1.000000 0.833333
vt 0.937500 0.833333
vt 0.937500 0.932648
vt 1.000000 0.932648
vt 0.937500 0.567352
vt 0.937500 0.666667
vt 0.000000 0.567352
vt 0.000000 0.666667
vt 0.326671 0.435100
vt 0.391669 0.391669
vt 0.435100 0.326671
vt 0.450351 0.250000
vt 0.435100 0.173329
vt 0.391669 0.108331
vt 0.326671 0.064900
vt 0.250000 0.049649
vt 0.173329 0.064900
vt 0.108331 0.108331
vt 0.064900 0.173329
vt 0.049649 0.250000
vt 0.064900 0.326671
vt 0.108331 0.391669
vt 0.173329 0.435100
vt 0.250000 0.450350
vt 1.000000 0.722222
vt 0.937500 0.722222
vt 0.125000 0.833333
vt 0.125000 0.932648
vt 0.187500 0.722222
vt 0.125000 0.722222
vt 0.187500 0.833333
vt 0.187500 0.932648
vt 0.375000 0.833333
vt 0.312500 0.833333
vt 0.250000 0.833333
vt 0.250000 0.932648
vt 0.187500 0.777778
vt 0.250000 0.777778
vt 0.312500 0.932648
vt 0.375000 0.932648
vt 0.250000 0.722222
vt 0.437500 0.833333
vt 0.437500 0.932648
vt 0.500000 0.833333
vt 0.500000 0.932648
vt 0.312500 0.777778
vt 0.562500 0.833333
vt 0.562500 0.932648
vt 0.625000 0.833333
vt 0.625000 0.932648
vt 0.312500 0.722222
vt 0.687500 0.833333
vt 0.687500 0.932648
vt 0.750000 0.833333
vt 0.750000 0.932648
vt 0.375000 0.777778
vt 0.812500 0.833333
vt 0.812500 0.932648
vt 0.875000 0.833333
vt 0.875000 0.932648
vt 0.375000 0.722222
vt 0.750000 0.450350
vt 0.673329 0.435100
vt 0.608331 0.391669
vt 0.564900 0.326671
vt 0.549649 0.250000
vt 0.564900 0.173329
vt 0.608331 0.108331
vt 0.673329 0.064900
vt 0.750000 0.049649
vt 0.826671 0.064900
vt 0.891669 0.108331
vt 0.935100 0.173329
vt 0.950350 0.250000
vt 0.935100 0.326671
vt 0.891669 0.391669
vt 0.826671 0.435100
vt 0.437500 0.777778
vt 0.937500 0.777778
vt 1.000000 0.777778
vt 0.875000 0.722222
vt 0.875000 0.777778
vt 1.000000 0.666667
vt 0.812500 0.722222
vt 0.812500 0.777778
vt 0.437500 0.722222
vt 0.750000 0.722222
vt 0.750000 0.777778
vt 0.687500 0.722222
vt 0.687500 0.777778
vt 0.625000 0.722222
vt 0.625000 0.777778
vt 0.500000 0.777778
vt 0.562500 0.722222
vt 0.562500 0.777778
vt 0.500000 0.722222
vt 0.125000 0.777778
vt 0.062500 0.722222
vt 0.062500 0.777778
vt 0.000000 0.722222
vt 0.000000 0.777778
vt 1.000000 0.567352
vt 0.994837 0.500000
vt 0.942663 0.500000
vt 0.942663 1.000000
vt 0.994837 1.000000
vt 0.932337 0.500000
vt 0.880163 0.500000
vt 0.880163 1.000000
vt 0.932337 1.000000
vt 0.869837 0.500000
vt 0.817663 0.500000
vt 0.817663 1.000000
vt 0.869837 1.000000
vt 0.807337 0.500000
vt 0.755163 0.500000
vt 0.755162 1.000000
vt 0.807337 1.000000
vt 0.744838 0.500000
vt 0.692663 0.500000
vt 0.692663 1.000000
vt 0.744838 1.000000
vt 0.682337 0.500000
vt 0.630163 0.500000
vt 0.630163 1.000000
vt 0.682337 1.000000
vt 0.619837 0.500000
vt 0.567663 0.500000
vt 0.567663 1.000000
vt 0.619837 1.000000
vt 0.557337 0.500000
vt 0.505163 0.500000
vt 0.505163 1.000000
vt 0.557337 1.000000
vt 0.494837 0.500000
vt 0.442663 0.500000
vt 0.442663 1.000000
vt 0.494837 1.000000
vt 0.432337 0.500000
vt 0.380163 0.500000
vt 0.380163 1.000000
vt 0.432337 1.000000
vt 0.369837 0.500000
vt 0.317663 0.500000
vt 0.317663 1.000000
vt 0.369837 1.000000
vt 0.307337 0.500000
vt 0.255163 0.500000
vt 0.255163 1.000000
vt 0.307337 1.000000
vt 0.244838 0.500000
vt 0.192663 0.500000
vt 0.192663 1.000000
vt 0.244837 1.000000
vt 0.182337 0.500000
vt 0.130163 0.500000
vt 0.130163 1.000000
vt 0.182337 1.000000
vt 0.119837 0.500000
vt 0.067663 0.500000
vt 0.067663 1.000000
vt 0.119837 1.000000
vt 0.057337 0.500000
vt 0.005163 0.500000
vt 0.005163 1.000000
vt 0.057337 1.000000
s 1
f 31/1/1 2/2/2 132/3/2 192/4/1
f 138/5/3 142/6/4 8/7/4 6/8/3
f 142/6/4 146/9/5 10/10/5 8/7/4
f 146/9/5 150/11/6 12/12/6 10/10/5
f 150/11/6 154/13/7 14/14/7 12/12/6
f 154/13/7 158/15/8 16/16/8 14/14/7
f 158/15/8 162/17/9 18/18/9 16/16/8
f 162/17/9 166/19/10 20/20/10 18/18/9
f 166/19/10 170/21/11 22/22/11 20/20/10
f 170/21/11 174/23/12 24/24/12 22/22/11
f 174/23/12 178/25/13 26/26/13 24/24/12
f 178/27/13 182/28/14 28/29/14 26/26/13
f 182/28/14 186/30/15 30/31/15 28/29/14
f 186/30/15 190/32/1 32/33/1 30/31/15
f 2/34/2 3/35/16 136/36/16 132/37/2
f 134/38/16 138/5/3 6/8/3 4/39/16
f 190/32/1 130/40/2 1/41/2 32/33/1
f 135/42/17 139/43/17 143/44/17 147/45/17 151/46/17 155/47/17 159/48/17 163/49/17 167/50/17 171/51/17 175/52/17 179/53/17 183/54/17 187/55/17 191/56/17 131/57/17
f 33/58/18 113/58/18 67/59/18 36/59/18
f 29/60/15 31/1/1 192/4/1 188/61/15
f 60/62/18 91/62/18 93/63/18 62/63/18
f 27/64/14 29/60/15 188/61/15 184/65/14
f 21/66/18 103/66/18 102/67/18 23/67/18
f 25/68/13 27/64/14 184/65/14 180/69/13
f 59/70/17 126/70/17 125/71/17 57/71/17
f 23/67/12 25/68/13 180/69/13 176/72/12
f 24/24/17 88/24/17 86/22/17 22/22/17
f 21/66/11 23/67/12 176/72/12 172/73/11
f 58/74/18 89/74/18 91/62/18 60/62/18
f 19/75/10 21/66/11 172/73/11 168/76/10
f 23/67/18 102/67/18 101/68/18 25/68/18
f 17/77/9 19/75/10 168/76/10 164/78/9
f 57/71/17 125/71/17 124/79/17 55/79/17
f 15/80/8 17/77/9 164/78/9 160/81/8
f 26/26/17 90/26/17 88/24/17 24/24/17
f 13/82/7 15/80/8 160/81/8 156/83/7
f 56/84/18 87/84/18 89/74/18 58/74/18
f 11/85/6 13/82/7 156/83/7 152/86/6
f 25/68/18 101/68/18 100/64/18 27/64/18
f 9/87/5 11/85/6 152/86/6 148/88/5
f 55/79/17 124/79/17 123/89/17 53/89/17
f 7/90/4 9/87/5 148/88/5 144/91/4
f 28/29/17 92/29/17 90/26/17 26/26/17
f 5/92/3 7/90/4 144/91/4 140/93/3
f 54/94/18 85/94/18 87/84/18 56/84/18
f 3/35/16 5/92/3 140/93/3 136/36/16
f 27/64/18 100/64/18 99/60/18 29/60/18
f 129/95/18 189/96/18 185/97/18 181/98/18 177/99/18 173/100/18 169/101/18 165/102/18 161/103/18 157/104/18 153/105/18 149/106/18 145/107/18 141/108/18 137/109/18 133/110/18
f 2/34/18 66/34/18 112/35/18 3/35/18
f 53/89/17 123/89/17 122/111/17 51/111/17
f 33/58/2 36/59/16 35/112/16 34/113/2
f 30/31/17 94/31/17 92/29/17 28/29/17
f 36/59/16 38/114/3 37/115/3 35/112/16
f 4/39/17 68/39/17 97/116/17 1/116/17
f 38/114/3 40/117/4 39/118/4 37/115/3
f 52/119/18 83/119/18 85/94/18 54/94/18
f 40/117/4 42/120/5 41/121/5 39/118/4
f 29/60/18 99/60/18 98/1/18 31/1/18
f 42/120/5 44/122/6 43/123/6 41/121/5
f 3/35/18 112/35/18 111/92/18 5/92/18
f 44/122/6 46/124/7 45/125/7 43/123/6
f 51/111/17 122/111/17 121/126/17 49/126/17
f 46/124/7 48/127/8 47/128/8 45/125/7
f 32/33/17 96/33/17 94/31/17 30/31/17
f 48/127/8 50/129/9 49/126/9 47/128/8
f 6/8/17 70/8/17 68/39/17 4/39/17
f 50/129/9 52/119/10 51/111/10 49/126/9
f 50/129/18 81/129/18 83/119/18 52/119/18
f 52/119/10 54/94/11 53/89/11 51/111/10
f 31/1/18 98/1/18 66/2/18 2/2/18
f 54/94/11 56/84/12 55/79/12 53/89/11
f 5/92/18 111/92/18 110/90/18 7/90/18
f 56/84/12 58/74/13 57/71/13 55/79/12
f 49/126/17 121/126/17 120/128/17 47/128/17
f 58/74/13 60/62/14 59/70/14 57/71/13
f 1/41/17 97/41/17 96/33/17 32/33/17
f 60/62/14 62/63/15 61/130/15 59/70/14
f 8/7/17 72/7/17 70/8/17 6/8/17
f 62/63/15 64/131/1 63/132/1 61/130/15
f 48/127/18 79/127/18 81/129/18 50/129/18
f 64/131/1 33/133/2 34/134/2 63/132/1
f 128/132/1 65/134/2 66/2/2 98/1/1
f 127/130/15 128/132/1 98/1/1 99/60/15
f 126/70/14 127/130/15 99/60/15 100/64/14
f 125/71/13 126/70/14 100/64/14 101/68/13
f 124/79/12 125/71/13 101/68/13 102/67/12
f 123/89/11 124/79/12 102/67/12 103/66/11
f 122/111/10 123/89/11 103/66/11 104/75/10
f 121/126/9 122/111/10 104/75/10 105/77/9
f 120/128/8 121/126/9 105/77/9 106/80/8
f 119/125/7 120/128/8 106/80/8 107/82/7
f 118/123/6 119/125/7 107/82/7 108/85/6
f 117/121/5 118/123/6 108/85/6 109/87/5
f 116/118/4 117/121/5 109/87/5 110/90/4
f 115/115/3 116/118/4 110/90/4 111/92/3
f 114/112/16 115/115/3 111/92/3 112/35/16
f 65/113/2 114/112/16 112/35/16 66/34/2
f 97/116/2 68/39/16 67/59/16 113/58/2
f 68/39/16 70/8/3 69/114/3 67/59/16
f 70/8/3 72/7/4 71/117/4 69/114/3
f 72/7/4 74/10/5 73/120/5 71/117/4
f 74/10/5 76/12/6 75/122/6 73/120/5
f 76/12/6 78/14/7 77/124/7 75/122/6
f 78/14/7 80/16/8 79/127/8 77/124/7
f 80/16/8 82/18/9 81/129/9 79/127/8
f 82/18/9 84/20/10 83/119/10 81/129/9
f 84/20/10 86/22/11 85/94/11 83/119/10
f 86/22/11 88/24/12 87/84/12 85/94/11
f 88/24/12 90/26/13 89/74/13 87/84/12
f 90/26/13 92/29/14 91/62/14 89/74/13
f 92/29/14 94/31/15 93/63/15 91/62/14
f 94/31/15 96/33/1 95/131/1 93/63/15
f 96/33/1 97/41/2 113/133/2 95/131/1
f 22/22/17 86/22/17 84/20/17 20/20/17
f 61/130/17 127/130/17 126/70/17 59/70/17
f 35/112/17 114/112/17 65/113/17 34/113/17
f 19/75/18 104/75/18 103/66/18 21/66/18
f 62/63/18 93/63/18 95/131/18 64/131/18
f 36/59/18 67/59/18 69/114/18 38/114/18
f 20/20/17 84/20/17 82/18/17 18/18/17
f 63/132/17 128/132/17 127/130/17 61/130/17
f 37/115/17 115/115/17 114/112/17 35/112/17
f 17/77/18 105/77/18 104/75/18 19/75/18
f 64/131/18 95/131/18 113/133/18 33/133/18
f 38/114/18 69/114/18 71/117/18 40/117/18
f 18/18/17 82/18/17 80/16/17 16/16/17
f 34/134/17 65/134/17 128/132/17 63/132/17
f 39/118/17 116/118/17 115/115/17 37/115/17
f 15/80/18 106/80/18 105/77/18 17/77/18
f 40/117/18 71/117/18 73/120/18 42/120/18
f 16/16/17 80/16/17 78/14/17 14/14/17
f 41/121/17 117/121/17 116/118/17 39/118/17
f 13/82/18 107/82/18 106/80/18 15/80/18
f 42/120/18 73/120/18 75/122/18 44/122/18
f 14/14/17 78/14/17 76/12/17 12/12/17
f 43/123/17 118/123/17 117/121/17 41/121/17
f 11/85/18 108/85/18 107/82/18 13/82/18
f 44/122/18 75/122/18 77/124/18 46/124/18
f 12/12/17 76/12/17 74/10/17 10/10/17
f 45/125/17 119/125/17 118/123/17 43/123/17
f 9/87/18 109/87/18 108/85/18 11/85/18
f 46/124/18 77/124/18 79/127/18 48/127/18
f 10/10/17 74/10/17 72/7/17 8/7/17
f 47/128/17 120/128/17 119/125/17 45/125/17
f 7/90/18 110/90/18 109/87/18 9/87/18
f 130/135/19 129/136/19 133/137/20 134/38/20
f 136/36/21 135/138/21 131/139/22 132/37/22
f 134/38/20 133/140/20 137/141/23 138/5/23
f 140/93/24 139/142/24 135/143/21 136/36/21
f 138/5/23 137/144/23 141/145/25 142/6/25
f 144/91/26 143/146/26 139/147/24 140/93/24
f 142/6/25 141/148/25 145/149/27 146/9/27
f 148/88/28 147/150/28 143/151/26 144/91/26
f 146/9/27 145/152/27 149/153/29 150/11/29
f 152/86/30 151/154/30 147/155/28 148/88/28
f 150/11/29 149/156/29 153/157/31 154/13/31
f 156/83/32 155/158/32 151/159/30 152/86/30
f 154/13/31 153/160/31 157/161/33 158/15/33
f 160/81/34 159/162/34 155/163/32 156/83/32
f 158/15/33 157/164/33 161/165/35 162/17/35
f 164/78/36 163/166/36 159/167/34 160/81/34
f 162/17/35 161/168/35 165/169/37 166/19/37
f 168/76/38 167/170/38 163/171/36 164/78/36
f 166/19/37 165/172/37 169/173/39 170/21/39
f 172/73/40 171/174/40 167/175/38 168/76/38
f 170/21/39 169/176/39 173/177/41 174/23/41
f 176/72/42 175/178/42 171/179/40 172/73/40
f 174/23/41 173/180/41 177/181/43 178/25/43
f 180/69/44 179/182/44 175/183/42 176/72/42
f 178/27/43 177/184/43 181/185/45 182/28/45
f 184/65/46 183/186/46 179/187/44 180/69/44
f 182/28/45 181/188/45 185/189/47 186/30/47
f 188/61/48 187/190/48 183/191/46 184/65/46
f 186/30/47 185/192/47 189/193/49 190/32/49
f 192/4/50 191/194/50 187/195/48 188/61/48
f 190/32/49 189/196/49 129/197/19 130/40/19
f 132/3/22 131/198/22 191/199/50 192/4/50
f 130/135/2 134/38/16 4/39/16 1/116/2
